<?xml version="1.0" encoding="iso-8859-1"?>
<!-- Generator: Adobe Illustrator 18.0.0, SVG Export Plug-In . SVG Version: 6.00 Build 0)  -->
<!DOCTYPE svg PUBLIC "-//W3C//DTD SVG 1.1//EN" "http://www.w3.org/Graphics/SVG/1.1/DTD/svg11.dtd">
<svg version="1.1" id="Capa_1" xmlns="http://www.w3.org/2000/svg" xmlns:xlink="http://www.w3.org/1999/xlink" x="0px" y="0px"
	 viewBox="0 0 465.82 465.82" style="enable-background:new 0 0 465.82 465.82;" xml:space="preserve">
<g>
	<linearGradient id="SVGID_1_" gradientUnits="userSpaceOnUse" x1="67.3286" y1="235.4503" x2="182.9095" y2="168.7197">
		<stop  offset="0" style="stop-color:#FCF021"/>
		<stop  offset="0.2202" style="stop-color:#FAED21"/>
		<stop  offset="0.3585" style="stop-color:#F4E522"/>
		<stop  offset="0.4743" style="stop-color:#E9D622"/>
		<stop  offset="0.5776" style="stop-color:#D9C123"/>
		<stop  offset="0.6727" style="stop-color:#C6A725"/>
		<stop  offset="0.7617" style="stop-color:#AD8626"/>
		<stop  offset="0.8461" style="stop-color:#905E28"/>
		<stop  offset="0.9246" style="stop-color:#6F322A"/>
		<stop  offset="1" style="stop-color:#4A002D"/>
	</linearGradient>
	<polygon style="fill:url(#SVGID_1_);" points="219.964,232.9 125.124,263.72 30.274,171.27 	"/>
	<linearGradient id="SVGID_2_" gradientUnits="userSpaceOnUse" x1="32.744" y1="184.95" x2="222.444" y2="184.95">
		<stop  offset="0" style="stop-color:#ED1C24"/>
		<stop  offset="0.127" style="stop-color:#E71B23"/>
		<stop  offset="0.2912" style="stop-color:#D71921"/>
		<stop  offset="0.4757" style="stop-color:#BD161D"/>
		<stop  offset="0.6753" style="stop-color:#971217"/>
		<stop  offset="0.8846" style="stop-color:#680C10"/>
		<stop  offset="1" style="stop-color:#4B090B"/>
	</linearGradient>
	<polygon style="fill:url(#SVGID_2_);" points="163.824,144.61 222.444,225.29 32.744,163.66 	"/>
	<linearGradient id="SVGID_3_" gradientUnits="userSpaceOnUse" x1="199.604" y1="21.14" x2="199.604" y2="220.59">
		<stop  offset="0" style="stop-color:#FCF021"/>
		<stop  offset="0.2202" style="stop-color:#FAED21"/>
		<stop  offset="0.3585" style="stop-color:#F4E522"/>
		<stop  offset="0.4743" style="stop-color:#E9D622"/>
		<stop  offset="0.5776" style="stop-color:#D9C123"/>
		<stop  offset="0.6727" style="stop-color:#C6A725"/>
		<stop  offset="0.7617" style="stop-color:#AD8626"/>
		<stop  offset="0.8461" style="stop-color:#905E28"/>
		<stop  offset="0.9246" style="stop-color:#6F322A"/>
		<stop  offset="1" style="stop-color:#4A002D"/>
	</linearGradient>
	<polygon style="fill:url(#SVGID_3_);" points="228.914,21.14 228.914,220.59 170.294,139.91 	"/>
	<linearGradient id="SVGID_4_" gradientUnits="userSpaceOnUse" x1="236.914" y1="120.865" x2="295.5341" y2="120.865">
		<stop  offset="0" style="stop-color:#ED1C24"/>
		<stop  offset="0.127" style="stop-color:#E71B23"/>
		<stop  offset="0.2912" style="stop-color:#D71921"/>
		<stop  offset="0.4757" style="stop-color:#BD161D"/>
		<stop  offset="0.6753" style="stop-color:#971217"/>
		<stop  offset="0.8846" style="stop-color:#680C10"/>
		<stop  offset="1" style="stop-color:#4B090B"/>
	</linearGradient>
	<polygon style="fill:url(#SVGID_4_);" points="236.914,21.14 295.534,139.91 236.914,220.59 	"/>
	<linearGradient id="SVGID_5_" gradientUnits="userSpaceOnUse" x1="375.2836" y1="130.2947" x2="301.1745" y2="258.6553">
		<stop  offset="0" style="stop-color:#FCF021"/>
		<stop  offset="0.2202" style="stop-color:#FAED21"/>
		<stop  offset="0.3585" style="stop-color:#F4E522"/>
		<stop  offset="0.4743" style="stop-color:#E9D622"/>
		<stop  offset="0.5776" style="stop-color:#D9C123"/>
		<stop  offset="0.6727" style="stop-color:#C6A725"/>
		<stop  offset="0.7617" style="stop-color:#AD8626"/>
		<stop  offset="0.8461" style="stop-color:#905E28"/>
		<stop  offset="0.9246" style="stop-color:#6F322A"/>
		<stop  offset="1" style="stop-color:#4A002D"/>
	</linearGradient>
	<polygon style="fill:url(#SVGID_5_);" points="433.074,163.66 243.384,225.29 302.004,144.61 	"/>
	<linearGradient id="SVGID_6_" gradientUnits="userSpaceOnUse" x1="340.699" y1="171.27" x2="340.699" y2="263.72">
		<stop  offset="0" style="stop-color:#ED1C24"/>
		<stop  offset="0.127" style="stop-color:#E71B23"/>
		<stop  offset="0.2912" style="stop-color:#D71921"/>
		<stop  offset="0.4757" style="stop-color:#BD161D"/>
		<stop  offset="0.6753" style="stop-color:#971217"/>
		<stop  offset="0.8846" style="stop-color:#680C10"/>
		<stop  offset="1" style="stop-color:#4B090B"/>
	</linearGradient>
	<polygon style="fill:url(#SVGID_6_);" points="435.544,171.27 340.704,263.72 245.854,232.9 	"/>
	<linearGradient id="SVGID_7_" gradientUnits="userSpaceOnUse" x1="360.6241" y1="321.19" x2="243.384" y2="321.19">
		<stop  offset="0" style="stop-color:#FCF021"/>
		<stop  offset="0.2202" style="stop-color:#FAED21"/>
		<stop  offset="0.3585" style="stop-color:#F4E522"/>
		<stop  offset="0.4743" style="stop-color:#E9D622"/>
		<stop  offset="0.5776" style="stop-color:#D9C123"/>
		<stop  offset="0.6727" style="stop-color:#C6A725"/>
		<stop  offset="0.7617" style="stop-color:#AD8626"/>
		<stop  offset="0.8461" style="stop-color:#905E28"/>
		<stop  offset="0.9246" style="stop-color:#6F322A"/>
		<stop  offset="1" style="stop-color:#4A002D"/>
	</linearGradient>
	<polygon style="fill:url(#SVGID_7_);" points="338.234,271.33 360.624,401.87 243.384,240.51 	"/>
	<linearGradient id="SVGID_8_" gradientUnits="userSpaceOnUse" x1="323.5261" y1="424.2473" x2="224.3477" y2="252.4652">
		<stop  offset="0" style="stop-color:#ED1C24"/>
		<stop  offset="0.127" style="stop-color:#E71B23"/>
		<stop  offset="0.2912" style="stop-color:#D71921"/>
		<stop  offset="0.4757" style="stop-color:#BD161D"/>
		<stop  offset="0.6753" style="stop-color:#971217"/>
		<stop  offset="0.8846" style="stop-color:#680C10"/>
		<stop  offset="1" style="stop-color:#4B090B"/>
	</linearGradient>
	<polygon style="fill:url(#SVGID_8_);" points="236.914,245.21 354.144,406.57 236.914,344.94 	"/>
	<linearGradient id="SVGID_9_" gradientUnits="userSpaceOnUse" x1="142.2958" y1="424.2495" x2="241.4767" y2="252.463">
		<stop  offset="0" style="stop-color:#FCF021"/>
		<stop  offset="0.2202" style="stop-color:#FAED21"/>
		<stop  offset="0.3585" style="stop-color:#F4E522"/>
		<stop  offset="0.4743" style="stop-color:#E9D622"/>
		<stop  offset="0.5776" style="stop-color:#D9C123"/>
		<stop  offset="0.6727" style="stop-color:#C6A725"/>
		<stop  offset="0.7617" style="stop-color:#AD8626"/>
		<stop  offset="0.8461" style="stop-color:#905E28"/>
		<stop  offset="0.9246" style="stop-color:#6F322A"/>
		<stop  offset="1" style="stop-color:#4A002D"/>
	</linearGradient>
	<polygon style="fill:url(#SVGID_9_);" points="228.914,245.21 228.914,344.94 111.674,406.57 	"/>
	<linearGradient id="SVGID_10_" gradientUnits="userSpaceOnUse" x1="105.204" y1="321.19" x2="222.4341" y2="321.19">
		<stop  offset="0" style="stop-color:#ED1C24"/>
		<stop  offset="0.127" style="stop-color:#E71B23"/>
		<stop  offset="0.2912" style="stop-color:#D71921"/>
		<stop  offset="0.4757" style="stop-color:#BD161D"/>
		<stop  offset="0.6753" style="stop-color:#971217"/>
		<stop  offset="0.8846" style="stop-color:#680C10"/>
		<stop  offset="1" style="stop-color:#4B090B"/>
	</linearGradient>
	<polygon style="fill:url(#SVGID_10_);" points="222.434,240.51 105.204,401.87 127.594,271.33 	"/>
	<linearGradient id="SVGID_11_" gradientUnits="userSpaceOnUse" x1="23.804" y1="276.1" x2="119.764" y2="276.1">
		<stop  offset="0" style="stop-color:#00AA81"/>
		<stop  offset="0.2064" style="stop-color:#00A77F"/>
		<stop  offset="0.3611" style="stop-color:#009D77"/>
		<stop  offset="0.499" style="stop-color:#008D6B"/>
		<stop  offset="0.6271" style="stop-color:#00765A"/>
		<stop  offset="0.7484" style="stop-color:#005944"/>
		<stop  offset="0.8647" style="stop-color:#003528"/>
		<stop  offset="0.9748" style="stop-color:#000B08"/>
		<stop  offset="1" style="stop-color:#000000"/>
	</linearGradient>
	<polygon style="fill:url(#SVGID_11_);" points="119.764,269.67 112.204,313.7 23.804,300.85 87.784,238.5 	"/>
	<linearGradient id="SVGID_12_" gradientUnits="userSpaceOnUse" x1="232.914" y1="452.78" x2="232.914" y2="351.88">
		<stop  offset="0" style="stop-color:#00AA81"/>
		<stop  offset="0.2064" style="stop-color:#00A77F"/>
		<stop  offset="0.3611" style="stop-color:#009D77"/>
		<stop  offset="0.499" style="stop-color:#008D6B"/>
		<stop  offset="0.6271" style="stop-color:#00765A"/>
		<stop  offset="0.7484" style="stop-color:#005944"/>
		<stop  offset="0.8647" style="stop-color:#003528"/>
		<stop  offset="0.9748" style="stop-color:#000B08"/>
		<stop  offset="1" style="stop-color:#000000"/>
	</linearGradient>
	<polygon style="fill:url(#SVGID_12_);" points="272.454,372.66 232.914,452.78 193.374,372.66 232.914,351.88 	"/>
	<linearGradient id="SVGID_13_" gradientUnits="userSpaceOnUse" x1="406.086" y1="321.5988" x2="363.0883" y2="247.1247">
		<stop  offset="0" style="stop-color:#00AA81"/>
		<stop  offset="0.2064" style="stop-color:#00A77F"/>
		<stop  offset="0.3611" style="stop-color:#009D77"/>
		<stop  offset="0.499" style="stop-color:#008D6B"/>
		<stop  offset="0.6271" style="stop-color:#00765A"/>
		<stop  offset="0.7484" style="stop-color:#005944"/>
		<stop  offset="0.8647" style="stop-color:#003528"/>
		<stop  offset="0.9748" style="stop-color:#000B08"/>
		<stop  offset="1" style="stop-color:#000000"/>
	</linearGradient>
	<polygon style="fill:url(#SVGID_13_);" points="442.024,300.85 353.614,313.71 346.064,269.67 378.044,238.49 	"/>
	<linearGradient id="SVGID_14_" gradientUnits="userSpaceOnUse" x1="371.009" y1="63.885" x2="300.544" y2="134.35">
		<stop  offset="0" style="stop-color:#00AA81"/>
		<stop  offset="0.2064" style="stop-color:#00A77F"/>
		<stop  offset="0.3611" style="stop-color:#009D77"/>
		<stop  offset="0.499" style="stop-color:#008D6B"/>
		<stop  offset="0.6271" style="stop-color:#00765A"/>
		<stop  offset="0.7484" style="stop-color:#005944"/>
		<stop  offset="0.8647" style="stop-color:#003528"/>
		<stop  offset="0.9748" style="stop-color:#000B08"/>
		<stop  offset="1" style="stop-color:#000000"/>
	</linearGradient>
	<polygon style="fill:url(#SVGID_14_);" points="362.144,55.02 347.044,143.08 302.844,136.65 283.074,96.59 	"/>
	<linearGradient id="SVGID_15_" gradientUnits="userSpaceOnUse" x1="110.9317" y1="50.8298" x2="161.1061" y2="137.7343">
		<stop  offset="0" style="stop-color:#00AA81"/>
		<stop  offset="0.2064" style="stop-color:#00A77F"/>
		<stop  offset="0.3611" style="stop-color:#009D77"/>
		<stop  offset="0.499" style="stop-color:#008D6B"/>
		<stop  offset="0.6271" style="stop-color:#00765A"/>
		<stop  offset="0.7484" style="stop-color:#005944"/>
		<stop  offset="0.8647" style="stop-color:#003528"/>
		<stop  offset="0.9748" style="stop-color:#000B08"/>
		<stop  offset="1" style="stop-color:#000000"/>
	</linearGradient>
	<polygon style="fill:url(#SVGID_15_);" points="182.754,96.59 162.984,136.65 118.784,143.07 103.674,55.02 	"/>
	<path d="M453.414,300.78c1.09,1.07,1.48,2.65,1.01,4.1c-0.47,1.45-1.72,2.51-3.23,2.73l-96.23,13.98l16.44,95.83
		c0.26,1.5-0.36,3.01-1.59,3.91c-0.7,0.5-1.52,0.76-2.35,0.76c-0.64,0-1.28-0.15-1.87-0.46l-86.06-45.24l-43.03,87.2
		c-0.67,1.36-2.06,2.23-3.59,2.23c-1.52,0-2.91-0.87-3.58-2.23l-43.05-87.2l-86.06,45.24c-1.35,0.71-2.98,0.59-4.21-0.3
		c-1.23-0.9-1.85-2.41-1.59-3.91l16.43-95.83l-96.23-13.98c-1.5-0.22-2.75-1.28-3.23-2.73c-0.47-1.45-0.07-3.03,1.02-4.1
		l69.64-67.87l-69.64-67.88c-1.09-1.06-1.48-2.65-1.01-4.1c0.47-1.45,1.72-2.5,3.23-2.72l96.23-13.99l-16.44-95.83
		c-0.26-1.5,0.36-3.02,1.59-3.91c1.23-0.9,2.87-1.02,4.21-0.31l86.07,45.24l43.03-87.18c0.67-1.37,2.07-2.23,3.59-2.23
		s2.91,0.86,3.58,2.23l43.04,87.19l86.06-45.25c1.35-0.71,2.98-0.59,4.21,0.31c1.23,0.89,1.85,2.41,1.59,3.91l-16.43,95.84
		l96.23,13.98c1.5,0.22,2.76,1.27,3.23,2.72c0.47,1.45,0.07,3.04-1.02,4.1l-69.63,67.87L453.414,300.78z M353.614,313.71
		l88.41-12.86l-63.98-62.36l-31.98,31.18L353.614,313.71z M340.704,263.72l94.84-92.45l-189.69,61.63L340.704,263.72z
		 M243.384,225.29l189.69-61.63l-131.07-19.05L243.384,225.29z M347.044,143.08l15.1-88.06l-79.07,41.57l19.77,40.06L347.044,143.08
		z M360.624,401.87l-22.39-130.54l-94.85-30.82L360.624,401.87z M354.144,406.57l-117.23-161.36v99.73L354.144,406.57z
		 M295.534,139.91l-58.62-118.77v199.45L295.534,139.91z M232.914,452.78l39.54-80.12l-39.54-20.78l-39.54,20.78L232.914,452.78z
		 M228.914,344.94v-99.73l-117.24,161.36L228.914,344.94z M228.914,220.59V21.14l-58.62,118.77L228.914,220.59z M222.444,225.29
		l-58.62-80.68l-131.08,19.05L222.444,225.29z M105.204,401.87l117.23-161.36l-94.84,30.82L105.204,401.87z M125.124,263.72
		l94.84-30.82l-189.69-61.63L125.124,263.72z M162.984,136.65l19.77-40.06l-79.08-41.57l15.11,88.05L162.984,136.65z M112.204,313.7
		l7.56-44.03l-31.98-31.17l-63.98,62.35L112.204,313.7z"/>
</g>
<g>
</g>
<g>
</g>
<g>
</g>
<g>
</g>
<g>
</g>
<g>
</g>
<g>
</g>
<g>
</g>
<g>
</g>
<g>
</g>
<g>
</g>
<g>
</g>
<g>
</g>
<g>
</g>
<g>
</g>
</svg>
